External Loads File
version=1
nRows=46
nColumns=13
Range=5.000000e-03-10 seconds
endheader
time 	forceRightX 	forceRightY 	forceRightZ 	pointRightX 	pointRightY 	pointRightZ 	forceLeftX 	forceLeftY 	forceLeftZ 	pointLeftX 	pointLeftY 	pointLeftZ 		
7.505000 81.467620 76.570190 -0.000000 0.039659 0.373242 -0.101990 -265.789062 600.954409 -0.000000 0.316958 0.263934 -0.346918
7.510000 87.914149 78.141233 -0.000000 0.043668 0.383216 -0.101757 -256.663760 617.263505 -0.000000 0.313952 0.253753 -0.346686
7.515000 92.071178 77.307900 -0.000000 0.048455 0.393129 -0.101886 -243.894369 632.240056 -0.000000 0.310248 0.243987 -0.346370
7.520000 93.339540 74.287548 -0.000000 0.053614 0.402618 -0.102087 -228.227437 645.780000 -0.000000 0.305905 0.234480 -0.346029
7.525000 91.502014 69.162717 -0.000000 0.059469 0.412097 -0.102177 -208.882516 658.316454 -0.000000 0.300939 0.225319 -0.345523
7.530000 86.412184 62.204553 -0.000000 0.066324 0.421165 -0.101920 -186.169795 669.772300 -0.000000 0.295423 0.216323 -0.345059
7.535000 78.031694 53.830738 -0.000000 0.073312 0.429930 -0.102038 -161.707124 679.659799 -0.000000 0.289347 0.207714 -0.344686
7.540000 66.703845 44.221446 -0.000000 0.080724 0.438344 -0.102329 -135.380537 687.894455 -0.000000 0.282684 0.199342 -0.344396
7.545000 52.845090 33.730704 -0.000000 0.088314 0.446365 -0.102543 -108.579778 693.903328 -0.000000 0.275587 0.191423 -0.344238
7.550000 37.172119 22.478747 -0.000000 0.097057 0.453903 -0.102429 -79.886623 697.450580 -0.000000 0.267941 0.184002 -0.344148
7.555000 20.308408 10.861288 -0.000000 0.105473 0.460982 -0.102980 -52.377742 697.580544 -0.000000 0.259980 0.177139 -0.344145
7.560000 3.074976 -1.025056 -0.000000 0.114299 0.467774 -0.103370 -24.680246 693.898017 -0.000000 0.251656 0.170673 -0.344084
7.565000 -13.808240 -12.940036 -0.000000 0.123043 0.473835 -0.103652 1.193956 685.800271 -0.000000 0.243040 0.164921 -0.344023
7.570000 -29.712493 -24.546426 -0.000000 0.132220 0.479316 -0.103926 26.263853 672.985235 -0.000000 0.234136 0.159904 -0.343707
7.575000 -44.183724 -35.319169 -0.000000 0.141426 0.484134 -0.104106 50.474845 655.280334 -0.000000 0.224433 0.155371 -0.344900
7.580000 -56.740126 -44.929410 -0.000000 0.150663 0.488575 -0.104380 71.018378 633.044542 -0.000000 0.215601 0.151569 -0.344132
7.585000 -67.330658 -52.730510 -0.000000 0.159973 0.492172 -0.104529 90.591879 606.395518 -0.000000 0.205899 0.148330 -0.344057
7.590000 -75.742162 -58.490934 -0.000000 0.169201 0.495246 -0.104897 107.605805 575.970067 -0.000000 0.196093 0.145934 -0.344129
7.595000 -81.976471 -61.905340 -0.000000 0.178416 0.497684 -0.105085 122.304956 542.302181 -0.000000 0.186054 0.144190 -0.344086
7.600000 -86.053668 -62.811320 -0.000000 0.187698 0.499373 -0.105106 134.270570 506.109438 -0.000000 0.176041 0.143107 -0.344043
7.605000 -88.061588 -61.050247 -0.000000 0.196911 0.500351 -0.105445 143.261584 468.145914 -0.000000 0.166086 0.142722 -0.343927
7.610000 -88.073678 -56.523921 -0.000000 0.205655 0.500512 -0.105234 148.698603 429.329782 -0.000000 0.156274 0.143145 -0.343743
7.615000 -86.337440 -48.915226 -0.000000 0.214273 0.500037 -0.105073 151.205999 390.208455 -0.000000 0.146652 0.144202 -0.343550
7.620000 -83.038226 -38.131236 -0.000000 0.222621 0.498924 -0.104817 150.802717 351.509709 -0.000000 0.137323 0.145932 -0.343427
7.625000 -78.467877 -24.259853 -0.000000 0.230448 0.496992 -0.104508 147.804297 313.897886 -0.000000 0.128275 0.148448 -0.343163
7.630000 -73.066392 -7.626391 -0.000000 0.237816 0.494441 -0.104101 142.797670 277.952773 -0.000000 0.119451 0.151449 -0.342861
7.635000 -67.382087 11.276590 -0.000000 0.244718 0.490847 -0.103517 136.604049 244.090241 -0.000000 0.110743 0.155172 -0.342481
7.640000 -62.034599 31.769046 -0.000000 0.251141 0.486536 -0.102920 129.506423 212.916835 -0.000000 0.102513 0.159593 -0.341983
7.645000 -57.644609 53.446601 -0.000000 0.257148 0.481546 -0.102380 122.211290 184.686163 -0.000000 0.094466 0.164554 -0.341659
7.650000 -54.699511 76.135509 -0.000000 0.262967 0.475741 -0.101980 115.242245 159.600330 -0.000000 0.086707 0.170187 -0.341320
7.655000 -53.727339 99.749734 -0.000000 0.268450 0.469780 -0.101694 108.670184 138.105809 -0.000000 0.079206 0.176175 -0.340870
7.660000 -54.991858 124.408231 -0.000000 0.273494 0.462923 -0.101510 102.958722 120.353515 -0.000000 0.072121 0.182731 -0.340649
7.665000 -58.617401 150.143542 -0.000000 0.278268 0.455230 -0.101374 98.467235 106.411329 -0.000000 0.065492 0.189730 -0.340666
7.670000 -64.521044 176.896800 -0.000000 0.282755 0.447002 -0.101340 95.490468 96.084048 -0.000000 0.059111 0.197313 -0.340470
7.675000 -72.512673 204.471187 -0.000000 0.287211 0.438276 -0.101284 94.149221 89.007944 -0.000000 0.053088 0.205250 -0.340318
7.680000 -82.189035 232.540304 -0.000000 0.291620 0.429097 -0.101398 94.466230 84.689600 -0.000000 0.047526 0.213659 -0.340187
7.685000 -93.261531 260.548134 -0.000000 0.295580 0.419514 -0.101301 96.256842 82.724184 -0.000000 0.042455 0.222448 -0.340092
7.690000 -104.669869 288.144784 -0.000000 0.299596 0.409392 -0.101564 99.456772 82.475575 -0.000000 0.037920 0.231626 -0.339991
7.695000 -116.358113 314.710796 -0.000000 0.302883 0.398908 -0.101514 103.608000 83.728487 -0.000000 0.033941 0.241089 -0.339901
7.700000 -127.608433 340.088916 -0.000000 0.305916 0.388105 -0.101373 108.460502 86.052856 -0.000000 0.030570 0.250772 -0.339842
7.705000 -138.761649 364.002940 -0.000000 0.308723 0.377555 -0.101604 113.540876 89.346022 -0.000000 0.027820 0.260550 -0.339878
7.710000 -149.039945 386.796768 -0.000000 0.311102 0.366821 -0.101719 118.699780 93.106068 -0.000000 0.025736 0.270580 -0.339833
7.715000 -158.326756 408.619185 -0.000000 0.313018 0.355921 -0.101816 123.611128 97.031974 -0.000000 0.024466 0.280670 -0.339945
7.720000 -166.121490 429.709693 -0.000000 0.314490 0.344948 -0.101823 128.018435 100.728983 -0.000000 0.023837 0.290845 -0.340046
7.725000 -172.370944 450.074408 -0.000000 0.315511 0.333909 -0.101961 131.574102 103.954632 -0.000000 0.023985 0.300863 -0.340200
7.730000 -176.281990 470.019532 -0.000000 0.315837 0.322803 -0.101838 134.176842 106.246337 -0.000000 0.024736 0.310993 -0.340246
